Coordinates
version=1
nRows=5
nColumns=46
inDegrees=yes

Units are S.I. units (second, meters, Newtons, ...)
Angles are in degrees.

endheader
time	pelvis_tilt	pelvis_list	pelvis_rotation	pelvis_tx	pelvis_ty	pelvis_tz	bb_angle	bb_tx	bb_ty	bb_tz	hip_flexion_r	hip_adduction_r	hip_rotation_r	knee_angle_r	knee_angle_r_beta	ankle_angle_r	subtalar_angle_r	mtp_angle_r	crank_angle_r	hip_flexion_l	hip_adduction_l	hip_rotation_l	knee_angle_l	knee_angle_l_beta	ankle_angle_l	subtalar_angle_l	mtp_angle_l	crank_angle_l	lumbar_extension	lumbar_bending	lumbar_rotation	arm_flex_r	arm_add_r	arm_rot_r	elbow_flex_r	pro_sup_r	wrist_flex_r	wrist_dev_r	arm_flex_l	arm_add_l	arm_rot_l	elbow_flex_l	pro_sup_l	wrist_flex_l	wrist_dev_l
      0.00000000	    -26.42599808	      0.72188448	      3.75560679	      0.09856027	      1.06472360	     -0.26929200	      0.00000000	      0.50000000	      0.00000000	      0.25000000	     49.82132452	     -7.23501841	     -4.59868847	     41.49608980	      0.72424339	      7.94478762	     -9.38145461	      0.00000000	      0.00000000	    102.73668708	     -2.96038792	     -0.83918384	    104.91588711	      1.83112767	     22.99186353	     -6.39559896	      0.00000000	      0.00000000	    -42.55627495	     -1.16484962	     -3.14620924	     89.74291478	     -1.68941958	     41.59338457	     20.29926854	     20.45876076	      0.00000000	      0.00000000	     89.79319472	      1.51005600	     39.90451277	     23.93287699	     20.30380805	      0.00000000	      0.00000000
      0.00500000	    -26.46361094	      0.77288688	      3.75872026	      0.09853092	      1.06467173	     -0.26930746	      0.00000000	      0.50000000	      0.00000000	      0.25000000	     49.88901558	     -7.28469083	     -4.56435704	     41.53902922	      0.72499283	      7.97251568	     -9.33525209	      0.00000000	      0.00000000	    102.76063319	     -2.95619963	     -0.89657655	    104.91078244	      1.83103857	     23.01697081	     -6.42826396	      0.00000000	      0.00000000	    -42.52168922	     -1.21648967	     -3.22479122	     89.74364393	     -1.54661018	     41.24134025	     20.10056409	     20.79413275	      0.00000000	      0.00000000	     89.79202918	      1.50509744	     39.59265585	     23.94715349	     20.66938833	      0.00000000	      0.00000000
      0.01000000	    -26.47205469	      0.78108435	      3.73713766	      0.09851803	      1.06463461	     -0.26924048	      0.00000000	      0.50000000	      0.00000000	      0.25000000	     49.91076163	     -7.26899763	     -4.53953433	     41.55283032	      0.72523370	      7.97956765	     -9.33522442	      0.00000000	      0.00000000	    102.77309564	     -2.99023819	     -0.91173415	    104.91590563	      1.83112799	     22.99921902	     -6.49434191	      0.00000000	      0.00000000	    -42.52352372	     -1.24894052	     -3.23914285	     89.74151136	     -1.34401713	     40.09313523	     19.97033055	     21.83242917	      0.00000000	      0.00000000	     89.79163378	      1.67327927	     38.73660998	     23.79417908	     21.69848433	      0.00000000	      0.00000000
      0.01500000	    -26.48484573	      0.77064085	      3.71753133	      0.09865152	      1.06457799	     -0.26921447	      0.00000000	      0.50000000	      0.00000000	      0.25000000	     49.93422364	     -7.26239187	     -4.51536791	     41.56750937	      0.72548990	      7.98069876	     -9.25009058	      0.00000000	      0.00000000	    102.77583395	     -3.07483065	     -0.87265458	    104.90573347	      1.83095045	     23.05026477	     -6.21755749	      0.00000000	      0.00000000	    -42.43826228	     -1.23323159	     -3.20706315	     89.74694922	     -1.67080475	     42.55949800	     19.39856231	     23.26554349	      0.00000000	      0.00000000	     89.79463115	      1.11737287	     41.61345892	     23.34463376	     22.92921064	      0.00000000	      0.00000000
      0.02000000	    -26.43725347	      0.76839282	      3.73721143	      0.09868609	      1.06469590	     -0.26923451	      0.00000000	      0.50000000	      0.00000000	      0.25000000	     49.86286187	     -7.26878557	     -4.53549136	     41.54127176	      0.72503197	      7.96956173	     -9.27640917	      0.00000000	      0.00000000	    102.72004244	     -3.05524037	     -0.87245817	    104.90911252	      1.83100943	     23.07125934	     -6.19077876	      0.00000000	      0.00000000	    -42.50731298	     -1.21942011	     -3.19308429	     89.74399376	     -1.57797638	     41.50381181	     19.50743262	     23.48112216	      0.00000000	      0.00000000	     89.79512552	      1.41588645	     40.41309642	     23.22264487	     23.16004573	      0.00000000	      0.00000000
